<?xml version="1.0" standalone="no"?>
<!DOCTYPE svg PUBLIC "-//W3C//DTD SVG 20010904//EN"
 "http://www.w3.org/TR/2001/REC-SVG-20010904/DTD/svg10.dtd">
<svg version="1.0" xmlns="http://www.w3.org/2000/svg"
 width="454.000000pt" height="454.000000pt" viewBox="0 0 454.000000 454.000000"
 preserveAspectRatio="xMidYMid meet">
<metadata>
Created by potrace 1.14, written by Peter Selinger 2001-2017
</metadata>
<g transform="translate(0.000000,454.000000) scale(0.100000,-0.100000)"
fill="#000000" stroke="none">
<path d="M3970 4519 c0 -19 -4 -21 -32 -15 -17 3 -29 3 -25 0 4 -4 -1 -13 -11
-21 -16 -12 -16 -14 1 -27 23 -18 14 -59 -19 -85 -28 -22 -30 -31 -9 -31 19 0
19 -14 0 -30 -14 -12 -31 -11 -82 5 -17 6 -21 3 -19 -11 4 -23 25 -30 38 -13
11 15 8 5 -7 -33 -8 -19 9 -25 20 -8 9 15 25 12 25 -5 0 -8 -4 -15 -10 -15 -5
0 -10 -7 -10 -16 0 -8 4 -13 9 -10 5 3 12 -18 16 -46 4 -29 12 -61 17 -71 8
-15 5 -20 -11 -24 -17 -4 -19 -9 -10 -25 6 -11 9 -29 6 -39 -3 -12 0 -19 9
-19 16 0 19 -26 4 -35 -5 -3 -9 -20 -8 -38 2 -61 -35 -106 -89 -107 -18 0 -33
-4 -33 -10 0 -19 -40 -50 -65 -50 -26 0 -33 -14 -14 -26 6 -3 15 -1 19 7 7 10
11 10 24 -1 14 -11 16 -10 10 5 -6 15 -4 17 17 12 13 -4 30 -7 37 -7 6 0 12
-7 12 -16 0 -11 5 -14 16 -10 9 3 24 6 35 6 12 0 16 5 13 15 -4 8 -12 15 -20
15 -8 0 -14 4 -14 9 0 6 17 3 37 -6 24 -9 55 -13 85 -11 34 4 48 1 52 -9 5
-11 10 -11 26 -3 23 12 76 5 86 -11 3 -6 0 -17 -8 -26 -11 -15 -11 -16 5 -10
10 4 21 7 23 7 2 0 4 7 4 15 0 8 5 15 10 15 6 0 10 -8 10 -19 0 -14 10 -21 35
-25 19 -4 35 -13 35 -20 0 -21 27 -40 34 -24 5 10 7 10 12 1 8 -18 31 -16 38
2 6 17 42 20 51 5 3 -5 -1 -10 -9 -10 -19 0 -22 -19 -3 -22 6 0 17 -2 22 -3 6
-2 15 -3 20 -4 6 -1 4 -5 -4 -10 -9 -6 -11 -16 -6 -32 7 -22 8 -22 21 -4 13
18 14 18 15 -6 1 -18 3 -16 9 11 l7 35 3 -42 c2 -24 3 -49 4 -55 1 -7 7 -20
14 -28 7 -8 13 -19 14 -25 0 -5 8 -15 17 -22 15 -11 15 -12 0 -13 -18 0 -34
-53 -18 -58 19 -7 8 -23 -11 -17 -18 6 -20 2 -18 -29 3 -41 18 -49 18 -10 0
14 4 23 10 19 6 -3 10 -14 10 -25 0 -12 6 -17 18 -14 11 3 21 -3 27 -17 6 -13
16 -24 23 -27 9 -3 12 133 12 657 l0 661 -285 0 c-284 0 -285 0 -285 -21z m80
-29 c0 -5 -4 -10 -9 -10 -6 0 -13 5 -16 10 -3 6 1 10 9 10 9 0 16 -4 16 -10z
m-93 -46 c-3 -3 -12 -4 -19 -1 -8 3 -5 6 6 6 11 1 17 -2 13 -5z m11 -44 c7
-12 8 -20 2 -20 -5 0 -10 -6 -10 -14 0 -18 -23 -27 -41 -16 -11 7 -11 10 3 15
9 4 15 14 13 23 -5 35 14 42 33 12z m-14 -356 c11 -29 7 -64 -9 -64 -11 0 -15
11 -15 40 0 40 13 53 24 24z m-39 -54 c3 -5 -1 -10 -10 -10 -9 0 -13 5 -10 10
3 6 8 10 10 10 2 0 7 -4 10 -10z m565 -510 c0 -5 -5 -10 -11 -10 -5 0 -7 5 -4
10 3 6 8 10 11 10 2 0 4 -4 4 -10z"/>
<path d="M3760 4489 c0 -5 5 -7 10 -4 6 3 10 8 10 11 0 2 -4 4 -10 4 -5 0 -10
-5 -10 -11z"/>
<path d="M3860 4390 c0 -5 5 -10 11 -10 5 0 7 5 4 10 -3 6 -8 10 -11 10 -2 0
-4 -4 -4 -10z"/>
<path d="M3778 4383 c7 -3 16 -2 19 1 4 3 -2 6 -13 5 -11 0 -14 -3 -6 -6z"/>
<path d="M3830 4340 c0 -5 5 -10 11 -10 5 0 7 5 4 10 -3 6 -8 10 -11 10 -2 0
-4 -4 -4 -10z"/>
<path d="M70 4320 c0 -5 4 -10 8 -10 5 0 7 -13 4 -29 -4 -26 -2 -28 22 -24 32
6 61 47 43 60 -17 13 -77 15 -77 3z"/>
<path d="M70 4231 c0 -5 5 -13 10 -16 6 -3 10 -2 10 4 0 5 -4 13 -10 16 -5 3
-10 2 -10 -4z"/>
<path d="M4160 3649 c0 -5 5 -7 10 -4 6 3 10 8 10 11 0 2 -4 4 -10 4 -5 0 -10
-5 -10 -11z"/>
<path d="M4472 3198 c5 -15 28 -23 28 -10 0 5 -7 13 -16 16 -10 4 -14 1 -12
-6z"/>
<path d="M4455 3140 c4 -6 11 -8 16 -5 14 9 11 15 -7 15 -8 0 -12 -5 -9 -10z"/>
<path d="M297 2977 c7 -29 12 -63 10 -77 l-3 -25 -11 25 c-12 25 -12 25 -12 2
-1 -14 -5 -21 -12 -17 -6 4 -8 12 -6 19 3 6 -1 20 -8 29 -11 16 -13 14 -19
-14 -3 -17 -6 -55 -6 -85 0 -45 -3 -54 -22 -60 -21 -6 -21 -7 -3 -20 18 -13
17 -14 -8 -14 -15 0 -27 5 -27 10 0 14 -36 12 -48 -2 -5 -7 -13 -29 -17 -48
-3 -19 -13 -55 -21 -81 -8 -25 -16 -63 -19 -85 -17 -149 -26 -218 -31 -226 -3
-5 -8 -55 -11 -111 -2 -56 -9 -103 -14 -105 -5 -2 -9 -441 -9 -1048 l0 -1044
2270 0 2270 0 0 966 c0 657 -3 963 -10 959 -6 -4 -9 -14 -8 -23 5 -29 -45 -17
-80 18 -39 38 -40 44 -7 38 29 -6 30 -5 9 16 -14 15 -13 16 9 16 13 0 36 -9
50 -20 14 -11 27 -20 29 -20 3 0 5 16 6 35 1 25 -2 33 -12 29 -23 -9 -31 18
-10 34 13 10 15 16 7 19 -19 7 -16 33 5 34 13 0 12 2 -5 9 -28 11 -29 26 -3
42 16 10 20 23 20 63 -1 55 -24 101 -39 76 -9 -13 -71 -27 -71 -15 0 3 7 12
15 21 14 13 14 18 2 32 -8 9 -17 25 -21 36 -8 19 -8 19 -17 -2 -9 -26 -19 -29
-37 -11 -10 10 -17 10 -31 1 -16 -10 -20 -8 -24 13 -2 14 2 29 10 36 12 10 10
14 -12 25 -14 8 -23 18 -20 23 4 6 -1 10 -9 10 -9 0 -16 7 -16 16 0 10 -6 14
-15 10 -19 -7 -19 12 1 59 14 34 14 39 0 54 -9 10 -16 23 -16 29 0 7 -9 12
-20 12 -11 0 -20 -5 -20 -11 0 -6 -9 -8 -20 -4 -13 4 -20 2 -18 -5 2 -7 -4
-15 -12 -17 -12 -4 -12 -3 -1 5 11 8 11 10 0 15 -10 4 -10 6 -1 6 6 1 12 6 12
12 0 7 -11 8 -32 3 -18 -4 -39 -7 -45 -7 -19 0 -16 -14 7 -37 11 -11 17 -26
14 -33 -3 -8 2 -17 11 -21 10 -3 14 -13 11 -23 -4 -12 4 -26 24 -41 28 -23 29
-25 15 -52 -17 -34 -19 -44 -5 -35 5 3 7 0 4 -8 -3 -8 0 -18 5 -22 6 -3 9 -11
6 -16 -4 -5 4 -9 17 -9 13 0 29 -5 36 -12 6 -6 15 -9 19 -5 4 4 1 13 -5 19
-16 16 -15 25 4 25 9 0 21 -11 27 -24 5 -12 16 -23 24 -23 7 0 13 -7 13 -15 0
-8 5 -15 11 -15 5 0 8 4 5 9 -7 10 44 22 58 13 5 -3 1 -9 -10 -13 -14 -6 -15
-8 -3 -8 9 -1 22 -12 29 -26 16 -31 0 -55 -37 -55 -18 0 -24 -4 -19 -15 3 -10
-1 -15 -13 -15 -10 0 -22 7 -25 16 -5 13 -14 15 -41 10 -33 -7 -48 5 -25 19 5
3 10 12 10 18 0 7 -5 4 -11 -5 -15 -26 -79 -21 -79 6 0 6 -11 21 -25 34 -24
23 -25 23 -49 5 -14 -10 -26 -21 -26 -25 -1 -20 1 -23 10 -24 6 -1 13 -2 17
-3 3 0 -2 -10 -12 -21 -16 -18 -17 -42 -4 -89 2 -8 -4 -17 -13 -19 -13 -2 -18
3 -18 18 0 13 -5 20 -12 17 -7 -2 -13 -12 -13 -22 0 -10 -9 -22 -20 -26 -31
-12 -35 -11 -35 11 0 11 -5 20 -10 20 -14 0 -62 -31 -77 -50 -14 -17 -17 -56
-5 -64 13 -8 7 -49 -6 -54 -7 -2 -12 1 -12 8 0 6 -5 8 -10 5 -5 -3 -10 -1 -10
5 0 6 -5 8 -10 5 -6 -4 -5 -11 3 -20 11 -11 14 -33 8 -65 -1 -3 -5 2 -11 10
-5 8 -12 11 -16 7 -4 -4 7 -29 24 -56 30 -48 30 -52 26 -148 -3 -54 -4 -168
-4 -253 2 -185 2 -172 -1 -340 -1 -74 -3 -123 -6 -109 -3 21 -8 25 -28 22 -13
-3 -25 -14 -28 -24 -4 -15 -14 -19 -51 -19 -36 0 -44 -3 -40 -15 4 -8 1 -15
-6 -15 -6 0 -8 -5 -5 -10 4 -7 -9 -9 -37 -5 -27 3 -34 2 -19 -3 38 -12 40 -36
3 -30 -24 3 -33 0 -40 -16 -7 -16 -9 -10 -9 29 0 28 -4 70 -9 95 -10 48 -36
70 -84 70 -38 0 -70 27 -70 58 0 38 -17 94 -32 104 -19 12 -28 10 -28 -6 0 -8
-5 -16 -12 -18 -24 -8 -4 -273 27 -363 6 -16 5 -17 -4 -5 -9 13 -11 12 -11 -4
0 -20 0 -20 -14 0 -16 21 -20 16 -30 -41 -14 -80 -23 -110 -34 -108 -6 2 -9
-4 -6 -12 5 -11 2 -13 -10 -9 -9 3 -16 1 -16 -5 0 -6 -19 -11 -44 -11 -25 0
-48 -5 -51 -11 -4 -5 7 -23 24 -40 17 -16 31 -32 31 -36 0 -4 -5 -2 -12 5 -17
17 -49 15 -42 -2 7 -18 -98 -70 -143 -70 -24 0 -33 -4 -33 -17 0 -9 -7 -19
-15 -23 -8 -3 -15 -16 -15 -29 0 -32 -22 -51 -39 -34 -10 9 -16 7 -31 -10 -17
-22 -47 -33 -36 -14 8 12 -18 21 -34 11 -10 -6 -9 -9 1 -13 9 -3 7 -6 -5 -6
-20 -1 -20 -1 0 -16 17 -13 17 -14 2 -15 -10 0 -18 -5 -18 -11 0 -5 4 -8 9 -4
5 3 12 1 16 -5 3 -6 -4 -10 -17 -11 -13 0 -17 -3 -10 -6 6 -2 12 -16 12 -29 0
-21 -5 -24 -37 -25 -37 0 -93 -17 -64 -18 11 -1 12 -4 4 -12 -8 -8 -20 -9 -41
-1 -26 9 -29 8 -25 -8 3 -13 -3 -19 -25 -23 -16 -3 -36 -12 -43 -19 -20 -18
-140 -14 -151 6 -4 8 -16 12 -27 9 -13 -3 -20 2 -25 19 l-7 23 -15 -27 c-17
-33 -30 -36 -37 -8 -9 36 -96 51 -97 17 0 -7 -12 -20 -25 -30 -24 -17 -25 -17
-25 3 0 11 7 20 16 20 11 0 13 6 9 19 -4 15 0 21 17 24 13 3 -4 3 -37 1 -33
-2 -61 -8 -63 -14 -2 -5 -25 -6 -51 -3 -44 5 -49 3 -73 -26 -15 -17 -34 -31
-42 -31 -19 0 -22 26 -4 32 9 3 8 10 -5 23 -14 13 -21 15 -30 6 -17 -17 -39
-13 -33 7 3 9 2 22 -2 28 -10 15 -102 28 -102 15 0 -6 9 -11 20 -11 11 0 20
-4 20 -10 0 -5 9 -10 20 -10 11 0 20 -4 20 -10 0 -5 -9 -10 -21 -10 -11 0 -29
-5 -40 -10 -12 -7 -19 -7 -19 -1 0 5 8 12 18 14 12 3 10 5 -7 6 -21 1 -23 4
-18 37 7 43 15 53 26 35 5 -7 19 -11 32 -9 23 3 22 4 -10 21 -39 19 -55 22
-46 6 4 -6 -2 -13 -12 -15 -14 -4 -19 -12 -16 -28 5 -26 -11 -42 -47 -49 -14
-2 -19 -2 -12 0 16 6 16 20 0 26 -8 3 -6 6 5 6 9 1 17 8 17 16 0 17 -16 20
-25 5 -3 -6 -17 -7 -31 -4 -19 5 -23 3 -19 -9 8 -18 -14 -27 -40 -16 -19 7
-19 8 3 8 31 1 29 31 -3 31 -14 0 -25 4 -25 9 0 11 -88 35 -120 33 l-25 -2 23
18 23 18 -35 -4 c-53 -6 -46 19 13 46 27 12 54 22 60 22 11 0 15 13 12 38 -1
6 3 12 10 12 8 0 8 4 1 13 -10 12 -58 11 -177 -5 -15 -2 -20 3 -20 22 0 20 -8
27 -35 37 -19 6 -45 12 -57 12 -16 1 -21 6 -17 16 4 8 1 22 -6 30 -7 9 -10 18
-7 21 3 3 2 17 -3 30 -6 14 -6 34 -1 47 5 13 11 41 12 62 3 30 0 40 -11 40 -8
0 -15 9 -15 20 0 30 -20 14 -21 -17 0 -14 -5 -32 -11 -40 -36 -44 -73 -160
-73 -230 0 -54 -8 -80 -22 -72 -6 4 -8 -3 -4 -17 3 -13 3 -18 0 -11 -3 6 -12
12 -20 12 -21 0 -18 50 4 51 13 0 12 2 -5 9 -15 6 -23 17 -22 32 0 22 1 22 9
3 6 -15 9 -9 9 25 0 35 -2 40 -9 25 -6 -14 -7 -8 -4 20 6 43 -10 120 -27 131
-21 12 -57 -6 -61 -31 -3 -14 -1 -25 3 -25 19 0 9 -48 -11 -53 -16 -4 -20 0
-21 21 l-2 27 -4 -25 c-8 -50 -10 -52 -41 -36 -15 8 -35 14 -42 14 -42 -3 -80
3 -80 12 0 6 15 10 33 10 28 1 30 2 13 12 -11 6 -34 11 -52 10 -18 -1 -36 3
-39 8 -3 6 -1 10 4 10 12 0 15 30 4 30 -16 1 -40 26 -48 49 l-7 23 21 -21 c12
-12 29 -21 39 -21 16 1 16 1 0 11 -10 5 -18 16 -18 23 0 8 -9 16 -20 19 -11 3
-20 10 -20 17 0 6 4 9 9 5 5 -3 12 -1 16 5 3 5 0 10 -8 10 -10 0 -13 7 -10 20
3 11 1 20 -5 20 -5 0 -12 10 -16 22 -5 22 -6 22 -19 4 -19 -27 -21 372 -1 467
8 37 18 105 23 150 5 45 21 119 35 163 15 45 28 95 30 110 3 16 8 39 11 50 5
16 2 23 -16 27 -18 5 -20 9 -11 20 9 10 9 16 0 25 -9 9 -4 19 20 40 18 16 30
31 27 34 -7 7 16 61 30 70 6 5 4 13 -7 24 -15 15 -17 15 -27 -5 -7 -11 -18
-21 -26 -21 -8 0 -15 -4 -15 -10 0 -12 -20 -13 -39 -1 -12 8 -12 12 2 25 11
12 14 26 10 46 -3 19 -1 30 6 30 6 0 11 9 11 19 0 11 4 21 9 23 5 2 6 21 2 43
-6 37 -9 40 -40 43 -18 2 -38 -1 -44 -7 -14 -14 -37 -14 -37 -1 0 6 7 10 16
10 14 0 14 1 0 16 -18 17 -21 28 -7 19 21 -12 20 15 -1 29 l-22 16 27 0 c16 0
26 4 22 10 -3 5 -1 19 5 31 11 19 10 20 -10 14 -19 -6 -21 -4 -15 14 4 14 2
21 -6 21 -7 0 -5 8 7 21 14 16 15 23 7 26 -7 3 -13 11 -13 19 0 8 -8 14 -17
13 -12 0 -14 -2 -5 -6 10 -4 7 -9 -10 -17 -14 -8 -25 -9 -30 -2 -7 11 9 29 35
39 21 8 18 32 -4 32 -7 0 -15 8 -17 18 -3 16 -1 17 17 7 12 -6 21 -7 21 -3 0
4 5 1 10 -7 6 -9 10 -10 10 -3 0 6 -7 18 -15 27 -20 19 -19 42 1 50 21 8 10
20 -19 21 -17 0 -22 6 -23 34 -1 20 -9 38 -19 43 -12 7 -16 21 -14 48 2 22 0
42 -4 46 -4 4 -7 -4 -7 -18 0 -34 -11 -42 -24 -16 -17 33 -39 36 -26 3 12 -31
13 -65 2 -65 -12 0 -34 59 -28 75 3 10 -1 15 -12 15 -12 0 -14 2 -4 8 9 6 5
12 -15 22 -15 7 -23 15 -16 17 8 3 7 10 -5 22 -9 10 -20 16 -24 14 -5 -2 -8
11 -8 30 0 20 -6 37 -13 40 -11 4 -11 -4 0 -46z m86 -176 c-6 -23 -57 -26 -75
-4 -10 12 -7 13 15 8 17 -5 27 -3 27 4 0 6 9 11 19 11 14 0 18 -5 14 -19z
m106 -46 c0 -5 -6 -1 -14 9 -8 11 -15 24 -15 30 0 5 7 1 15 -10 8 -10 14 -23
14 -29z m-199 25 c8 -5 12 -11 10 -14 -3 -2 -14 2 -24 10 -22 15 -10 19 14 4z
m210 -60 c0 -5 -4 -10 -10 -10 -5 0 -10 5 -10 10 0 6 5 10 10 10 6 0 10 -4 10
-10z m-153 -16 c-3 -3 -12 -4 -19 -1 -8 3 -5 6 6 6 11 1 17 -2 13 -5z m-126
-13 c-7 -5 -11 -13 -7 -19 3 -6 2 -13 -3 -16 -5 -3 -12 1 -15 10 -10 27 -7 34
17 34 16 0 18 -3 8 -9z m47 -79 c2 -7 -3 -12 -12 -12 -9 0 -16 4 -16 9 0 5
-10 12 -22 14 -13 3 -8 4 11 3 19 -1 37 -8 39 -14z m219 -39 c-3 -10 -5 -4 -5
12 0 17 2 24 5 18 2 -7 2 -21 0 -30z m-127 -37 c0 -3 -4 -8 -10 -11 -5 -3 -10
-1 -10 4 0 6 5 11 10 11 6 0 10 -2 10 -4z m3870 -16 c0 -5 -4 -10 -10 -10 -5
0 -10 5 -10 10 0 6 5 10 10 10 6 0 10 -4 10 -10z m0 -30 c0 -5 -5 -10 -11 -10
-5 0 -7 5 -4 10 3 6 8 10 11 10 2 0 4 -4 4 -10z m-20 -130 c0 -5 -4 -10 -10
-10 -5 0 -10 5 -10 10 0 6 5 10 10 10 6 0 10 -4 10 -10z m220 -45 c0 -8 -4
-15 -10 -15 -5 0 -10 7 -10 15 0 8 5 15 10 15 6 0 10 -7 10 -15z m-4333 -11
c-3 -3 -12 -4 -19 -1 -8 3 -5 6 6 6 11 1 17 -2 13 -5z m250 0 c-3 -3 -12 -4
-19 -1 -8 3 -5 6 6 6 11 1 17 -2 13 -5z m183 2 c0 -3 -4 -8 -10 -11 -5 -3 -10
-1 -10 4 0 6 5 11 10 11 6 0 10 -2 10 -4z m3620 -71 c0 -8 -7 -15 -15 -15 -16
0 -20 12 -8 23 11 12 23 8 23 -8z m-5 -105 c4 -7 13 -7 26 0 26 15 24 0 -5
-27 -29 -28 -37 -28 -59 -3 -17 20 -16 20 10 15 16 -3 22 -2 16 1 -15 7 -17
24 -4 24 6 0 13 -5 16 -10z m311 -127 c-3 -3 -12 -3 -21 1 -13 5 -14 8 -3 20
11 12 14 12 21 -1 5 -8 6 -17 3 -20z m-247 -2 c10 -10 16 -22 14 -28 -3 -7 6
-17 19 -24 28 -14 64 -51 61 -61 -2 -4 8 -10 22 -14 18 -4 25 -13 25 -30 0
-13 -4 -24 -10 -24 -5 0 -9 -6 -7 -12 1 -9 -13 -13 -45 -13 -55 0 -61 -4 -52
-40 4 -18 9 -23 14 -14 5 7 6 18 3 26 -4 9 4 13 28 13 48 0 65 -13 43 -31 -12
-9 -15 -10 -10 -1 5 8 0 12 -15 12 -18 0 -19 -2 -9 -15 10 -12 7 -16 -16 -25
-24 -9 -31 -8 -42 7 -10 13 -16 14 -19 5 -3 -7 -18 -19 -34 -27 -33 -18 -38
-35 -10 -35 11 0 23 9 26 20 8 25 25 26 25 1 0 -26 -25 -44 -50 -36 -16 5 -20
2 -21 -17 -1 -20 -2 -20 -6 -3 -3 11 -12 25 -21 31 -9 7 -13 18 -8 29 3 10 1
24 -5 31 -15 19 -30 18 -23 -1 4 -9 0 -15 -10 -15 -22 0 -20 -9 7 -33 l22 -20
-27 5 c-19 4 -28 1 -28 -7 0 -17 27 -27 34 -12 2 7 4 -4 4 -23 0 -19 -2 -27
-5 -17 -4 15 -11 17 -43 12 -46 -8 -58 6 -35 41 13 20 14 28 4 40 -7 8 -8 14
-3 13 19 -3 33 2 49 17 13 13 13 19 3 31 -11 14 -8 15 22 8 19 -4 45 -13 57
-21 30 -19 32 -18 25 8 -4 17 -2 20 11 15 11 -4 17 -1 17 8 0 8 -4 15 -10 15
-5 0 -19 8 -30 18 -11 9 -33 19 -48 22 -15 3 -27 12 -27 20 0 8 -4 21 -8 28
-5 8 -2 12 9 12 11 0 15 -6 11 -20 -6 -22 18 -29 26 -7 3 8 10 6 22 -8 13 -16
15 -16 11 -3 -3 10 4 22 20 32 32 22 30 36 -11 66 -39 28 -42 41 -19 65 18 18
47 12 73 -14z m106 -51 c3 -5 2 -10 -4 -10 -5 0 -13 5 -16 10 -3 6 -2 10 4 10
5 0 13 -4 16 -10z m51 -20 c-1 -40 -26 -40 -26 0 0 19 5 30 14 30 8 0 13 -11
12 -30z m34 -5 c0 -19 -4 -35 -8 -35 -4 0 -8 16 -8 35 0 19 4 35 8 35 4 0 8
-16 8 -35z m-240 -25 c0 -5 -5 -12 -11 -16 -12 -7 -31 15 -23 28 6 9 34 -1 34
-12z m355 -40 c3 -5 1 -10 -4 -10 -6 0 -11 5 -11 10 0 6 2 10 4 10 3 0 8 -4
11 -10z m-118 -46 c-3 -3 -12 -4 -19 -1 -8 3 -5 6 6 6 11 1 17 -2 13 -5z
m-357 -34 c0 -5 -4 -10 -10 -10 -5 0 -10 5 -10 10 0 6 5 10 10 10 6 0 10 -4
10 -10z m80 -163 c0 -18 -2 -19 -10 -7 -13 20 -13 43 0 35 6 -3 10 -16 10 -28z
m-745 -477 c3 -5 2 -10 -4 -10 -5 0 -13 5 -16 10 -3 6 -2 10 4 10 5 0 13 -4
16 -10z m365 -180 c0 -5 -4 -10 -10 -10 -5 0 -10 5 -10 10 0 6 5 10 10 10 6 0
10 -4 10 -10z m117 -12 c-3 -8 -6 -5 -6 6 -1 11 2 17 5 13 3 -3 4 -12 1 -19z
m-3252 -58 c3 -5 1 -10 -4 -10 -6 0 -11 5 -11 10 0 6 2 10 4 10 3 0 8 -4 11
-10z m585 -120 c0 -5 -4 -10 -9 -10 -6 0 -13 5 -16 10 -3 6 1 10 9 10 9 0 16
-4 16 -10z m-290 -150 c0 -5 -5 -10 -11 -10 -5 0 -7 5 -4 10 3 6 8 10 11 10 2
0 4 -4 4 -10z m5 -40 c3 -5 -1 -10 -9 -10 -9 0 -16 5 -16 10 0 6 4 10 9 10 6
0 13 -4 16 -10z m0 -40 c3 -6 -1 -7 -9 -4 -18 7 -21 14 -7 14 6 0 13 -4 16
-10z m2070 -89 c3 -5 1 -12 -5 -16 -5 -3 -10 1 -10 9 0 18 6 21 15 7z m-100
-101 c3 -5 -3 -10 -15 -10 -12 0 -18 5 -15 10 3 6 10 10 15 10 5 0 12 -4 15
-10z m-2 -37 c-7 -2 -19 -2 -25 0 -7 3 -2 5 12 5 14 0 19 -2 13 -5z m-713 -98
c0 -15 -11 -19 -40 -15 -23 3 -26 10 -10 20 23 15 50 12 50 -5z m-240 -5 c0
-5 -7 -10 -15 -10 -8 0 -15 5 -15 10 0 6 7 10 15 10 8 0 15 -4 15 -10z m-182
-11 c-2 -6 -8 -10 -13 -10 -5 0 -11 4 -13 10 -2 6 4 11 13 11 9 0 15 -5 13
-11z m309 -5 c-3 -3 -12 -4 -19 -1 -8 3 -5 6 6 6 11 1 17 -2 13 -5z m638 -34
c-3 -5 -14 -10 -23 -10 -15 0 -15 -2 -2 -10 13 -8 12 -10 -2 -10 -10 0 -18 6
-18 14 0 13 14 21 43 25 5 0 5 -3 2 -9z m-838 -14 c-3 -7 -1 -18 4 -23 6 -6 4
-15 -7 -24 -16 -12 -17 -12 -12 2 3 9 2 22 -2 29 -10 16 -4 30 12 30 5 0 8 -6
5 -14z m70 -28 c-3 -7 -5 -2 -5 12 0 14 2 19 5 13 2 -7 2 -19 0 -25z m37 7
c-4 -8 -10 -12 -15 -9 -11 6 -2 24 11 24 5 0 7 -7 4 -15z m376 -15 c0 -5 -7
-7 -15 -4 -8 4 -15 8 -15 10 0 2 7 4 15 4 8 0 15 -4 15 -10z m90 -14 c0 -3 -4
-8 -10 -11 -5 -3 -10 -1 -10 4 0 6 5 11 10 11 6 0 10 -2 10 -4z"/>
<path d="M4222 1911 c2 -8 11 -15 19 -17 7 -1 19 -3 24 -5 6 -2 11 1 13 6 1 6
-8 10 -20 10 -13 0 -27 5 -31 10 -5 6 -7 4 -5 -4z"/>
<path d="M4301 1833 c7 -10 15 -20 16 -22 2 -2 3 5 3 17 0 14 -6 22 -16 22
-14 0 -15 -3 -3 -17z"/>
<path d="M1088 2959 c-10 -5 -18 -20 -18 -31 0 -16 3 -19 11 -11 6 6 18 9 25
6 10 -4 14 3 14 21 0 28 -6 31 -32 15z"/>
<path d="M1847 2873 c-6 -11 9 -49 22 -58 6 -3 11 -16 11 -28 0 -18 2 -19 10
-7 14 22 12 34 -10 60 -11 12 -17 27 -14 31 3 5 1 9 -5 9 -5 0 -12 -3 -14 -7z"/>
<path d="M1325 2810 c3 -5 8 -10 11 -10 2 0 4 5 4 10 0 6 -5 10 -11 10 -5 0
-7 -4 -4 -10z"/>
<path d="M1900 2779 c0 -5 5 -7 10 -4 6 3 10 8 10 11 0 2 -4 4 -10 4 -5 0 -10
-5 -10 -11z"/>
<path d="M2650 2708 c-12 -22 -12 -22 6 -6 10 10 15 20 12 24 -4 3 -12 -5 -18
-18z"/>
<path d="M1214 2701 c3 -5 -1 -11 -9 -15 -8 -3 -15 -10 -15 -16 0 -6 11 -3 24
7 23 17 25 33 5 33 -6 0 -8 -4 -5 -9z"/>
<path d="M2030 2689 c0 -6 -9 -9 -19 -6 -10 2 -24 1 -31 -3 -8 -5 4 -15 35
-29 57 -25 55 -25 55 -6 0 8 -5 15 -11 15 -6 0 -9 9 -6 20 3 13 0 20 -9 20 -8
0 -14 -5 -14 -11z"/>
<path d="M4209 2678 c-12 -23 -12 -23 10 -4 23 21 26 26 11 26 -5 0 -15 -10
-21 -22z"/>
<path d="M1220 2649 c0 -5 5 -7 10 -4 6 3 10 8 10 11 0 2 -4 4 -10 4 -5 0 -10
-5 -10 -11z"/>
<path d="M2620 2641 c-6 -12 -7 -21 -1 -21 10 0 24 30 17 37 -2 3 -9 -5 -16
-16z"/>
<path d="M2408 2633 c7 -3 16 -2 19 1 4 3 -2 6 -13 5 -11 0 -14 -3 -6 -6z"/>
<path d="M675 2550 c-3 -5 1 -10 10 -10 9 0 13 5 10 10 -3 6 -8 10 -10 10 -2
0 -7 -4 -10 -10z"/>
<path d="M621 2541 c-10 -6 -4 -11 18 -16 18 -4 35 -4 38 -1 6 5 -5 8 -23 5
-4 0 -10 4 -13 10 -4 6 -12 6 -20 2z"/>
<path d="M1000 2540 c0 -5 4 -10 9 -10 6 0 13 5 16 10 3 6 -1 10 -9 10 -9 0
-16 -4 -16 -10z"/>
<path d="M2575 2470 c3 -5 8 -10 11 -10 2 0 4 5 4 10 0 6 -5 10 -11 10 -5 0
-7 -4 -4 -10z"/>
<path d="M978 2463 c7 -3 16 -2 19 1 4 3 -2 6 -13 5 -11 0 -14 -3 -6 -6z"/>
<path d="M740 2452 c0 -18 17 -23 42 -13 16 7 18 10 6 10 -9 1 -23 4 -32 7 -9
3 -16 1 -16 -4z"/>
<path d="M948 2383 c7 -3 16 -2 19 1 4 3 -2 6 -13 5 -11 0 -14 -3 -6 -6z"/>
<path d="M4140 2350 c0 -5 5 -10 10 -10 6 0 10 5 10 10 0 6 -4 10 -10 10 -5 0
-10 -4 -10 -10z"/>
<path d="M4190 2310 c0 -5 5 -10 10 -10 6 0 10 5 10 10 0 6 -4 10 -10 10 -5 0
-10 -4 -10 -10z"/>
<path d="M3406 2204 c-3 -9 -6 -18 -6 -20 0 -8 25 -4 40 6 13 9 13 11 0 20
-21 13 -27 12 -34 -6z"/>
<path d="M830 2180 c0 -5 7 -10 15 -10 8 0 15 5 15 10 0 6 -7 10 -15 10 -8 0
-15 -4 -15 -10z"/>
<path d="M778 2151 c-8 -12 -18 -18 -21 -14 -4 3 -7 1 -7 -5 0 -20 21 -24 46
-7 25 16 28 35 7 42 -6 2 -18 -5 -25 -16z"/>
<path d="M4474 1924 c3 -9 6 -18 6 -20 0 -3 5 -2 10 1 16 10 12 35 -6 35 -11
0 -14 -5 -10 -16z"/>
<path d="M1377 1169 c3 -10 9 -16 14 -13 13 8 11 21 -5 27 -10 4 -12 0 -9 -14z"/>
<path d="M1401 1094 c0 -11 3 -14 6 -6 3 7 2 16 -1 19 -3 4 -6 -2 -5 -13z"/>
<path d="M1435 1085 c4 -11 10 -30 12 -42 3 -13 9 -23 14 -23 16 0 9 31 -13
58 -15 20 -19 22 -13 7z"/>
<path d="M1410 1050 c0 -5 5 -10 11 -10 5 0 7 5 4 10 -3 6 -8 10 -11 10 -2 0
-4 -4 -4 -10z"/>
<path d="M1480 986 c0 -15 -3 -16 -14 -7 -9 8 -16 8 -20 2 -4 -5 -2 -12 4 -16
5 -3 11 -16 11 -28 1 -20 2 -20 6 -2 3 11 12 26 21 33 12 9 13 15 4 24 -9 9
-12 8 -12 -6z"/>
<path d="M621 954 c0 -11 3 -14 6 -6 3 7 2 16 -1 19 -3 4 -6 -2 -5 -13z"/>
<path d="M1483 894 c-3 -8 -1 -25 5 -37 6 -12 13 -32 17 -43 8 -29 112 -141
121 -131 5 4 -3 29 -17 55 -15 26 -35 63 -45 82 -25 46 -37 57 -52 52 -6 -2
-12 1 -12 7 0 6 5 11 10 11 6 0 10 5 10 10 0 16 -30 11 -37 -6z"/>
<path d="M2215 772 c-28 -6 -47 -23 -41 -38 2 -6 2 -15 -2 -18 -3 -4 -7 -17
-9 -29 -6 -46 -27 -97 -40 -97 -7 0 -13 -11 -13 -26 0 -15 -4 -23 -11 -19 -6
4 -8 13 -5 21 3 8 1 24 -4 36 -8 22 -9 21 -9 -6 -1 -16 -10 -37 -23 -47 -11
-11 -16 -19 -10 -19 7 0 12 -7 12 -15 0 -17 -16 -20 -25 -5 -12 20 -25 9 -19
-15 4 -15 2 -25 -5 -25 -6 0 -11 5 -11 10 0 6 -4 10 -10 10 -18 0 -10 -19 11
-25 15 -5 18 -9 9 -15 -8 -5 -2 -10 16 -14 16 -4 32 -12 35 -18 4 -6 40 -13
80 -16 41 -2 79 -9 86 -14 7 -5 21 -7 33 -3 12 4 20 2 20 -5 0 -6 6 -10 13 -7
6 2 11 10 9 16 -3 15 47 34 75 28 29 -5 45 6 37 27 -5 14 -9 15 -15 4 -7 -10
-9 -10 -9 3 0 9 -8 31 -17 50 -9 19 -18 41 -19 49 -11 66 -64 193 -64 151 0
-24 -18 -9 -24 20 -3 17 -10 28 -15 25 -5 -4 -11 2 -13 12 -2 11 -10 16 -23
14z m95 -100 c0 -13 -12 -22 -22 -16 -10 6 -1 24 13 24 5 0 9 -4 9 -8z m10
-42 c0 -5 -4 -10 -10 -10 -5 0 -10 5 -10 10 0 6 5 10 10 10 6 0 10 -4 10 -10z"/>
<path d="M900 680 c0 -5 5 -10 11 -10 5 0 7 5 4 10 -3 6 -8 10 -11 10 -2 0 -4
-4 -4 -10z"/>
<path d="M1831 614 c13 -16 29 -19 29 -5 0 5 -9 11 -21 14 -16 4 -18 3 -8 -9z"/>
<path d="M1875 590 c4 -6 11 -8 16 -5 14 9 11 15 -7 15 -8 0 -12 -5 -9 -10z"/>
<path d="M3087 560 c-6 -23 8 -26 29 -6 19 19 18 26 -5 26 -10 0 -21 -9 -24
-20z"/>
<path d="M1041 554 c0 -11 3 -14 6 -6 3 7 2 16 -1 19 -3 4 -6 -2 -5 -13z"/>
<path d="M1980 551 c0 -11 26 -22 34 -14 3 3 3 10 0 14 -7 12 -34 11 -34 0z"/>
<path d="M2900 444 c0 -9 5 -14 12 -12 18 6 21 28 4 28 -9 0 -16 -7 -16 -16z"/>
<path d="M2038 373 c7 -3 16 -2 19 1 4 3 -2 6 -13 5 -11 0 -14 -3 -6 -6z"/>
<path d="M1575 340 c-3 -5 1 -10 9 -10 9 0 16 5 16 10 0 6 -4 10 -9 10 -6 0
-13 -4 -16 -10z"/>
<path d="M1990 340 c0 -5 7 -10 15 -10 8 0 15 5 15 10 0 6 -7 10 -15 10 -8 0
-15 -4 -15 -10z"/>
<path d="M1610 320 c0 -11 7 -20 15 -20 13 0 14 4 5 20 -6 11 -13 20 -15 20
-3 0 -5 -9 -5 -20z"/>
<path d="M1662 328 c-14 -14 -16 -28 -3 -28 5 0 11 9 14 20 6 23 5 24 -11 8z"/>
<path d="M2738 333 c7 -3 16 -2 19 1 4 3 -2 6 -13 5 -11 0 -14 -3 -6 -6z"/>
<path d="M1938 303 c7 -3 16 -2 19 1 4 3 -2 6 -13 5 -11 0 -14 -3 -6 -6z"/>
<path d="M2038 303 c7 -3 16 -2 19 1 4 3 -2 6 -13 5 -11 0 -14 -3 -6 -6z"/>
<path d="M2080 300 c0 -5 5 -10 11 -10 5 0 7 5 4 10 -3 6 -8 10 -11 10 -2 0
-4 -4 -4 -10z"/>
<path d="M2124 291 c7 -11 -18 -21 -54 -21 -16 0 -32 -5 -36 -12 -5 -8 4 -9
32 -5 21 4 46 7 55 7 9 0 19 9 22 20 3 13 0 20 -10 20 -8 0 -12 -4 -9 -9z"/>
<path d="M2160 284 c0 -12 3 -14 13 -6 6 5 21 12 32 15 13 3 9 5 -12 6 -24 1
-33 -3 -33 -15z"/>
<path d="M2231 274 c0 -11 3 -14 6 -6 3 7 2 16 -1 19 -3 4 -6 -2 -5 -13z"/>
<path d="M2537 208 c4 -7 8 -16 9 -20 1 -5 2 -11 3 -14 0 -3 8 2 17 10 8 9 22
16 30 16 8 0 14 5 14 10 0 6 -18 10 -41 10 -30 0 -38 -3 -32 -12z"/>
<path d="M2480 180 c0 -5 7 -10 16 -10 8 0 12 5 9 10 -3 6 -10 10 -16 10 -5 0
-9 -4 -9 -10z"/>
</g>
</svg>
